<svg xmlns="http://www.w3.org/2000/svg" xmlns:xlink="http://www.w3.org/1999/xlink" preserveAspectRatio="xMidYMid" width="219" height="60.031" viewBox="0 0 219 60.031">
  <defs>
    <style>
      .cls-1 {
        fill: #fff;
        fill-rule: evenodd;
      }
    </style>
  </defs>
  <path d="M216.907,55.922 L218.841,55.922 L218.841,57.031 L216.907,57.031 L216.907,58.692 L218.989,58.692 L218.963,59.869 L215.677,59.869 L215.677,53.473 L218.963,53.464 L218.989,54.606 L216.907,54.606 L216.907,55.922 ZM212.912,23.947 L202.695,33.954 L192.479,23.947 L192.479,40.622 L186.204,40.622 L186.204,8.435 L202.516,25.613 L218.963,8.604 L218.963,40.622 L213.043,40.622 L212.912,23.947 ZM180.074,60.016 C179.305,60.016 178.668,59.780 178.163,59.311 C177.660,58.839 177.406,58.247 177.406,57.534 L177.406,53.473 L178.627,53.473 L178.627,57.350 C178.627,57.829 178.736,58.210 178.961,58.492 C179.208,58.804 179.579,58.960 180.074,58.960 C181.053,58.960 181.542,58.402 181.542,57.291 L181.542,53.473 L182.764,53.473 L182.764,57.489 C182.764,58.221 182.510,58.827 182.009,59.302 C181.508,59.777 180.861,60.016 180.074,60.016 ZM172.320,59.870 L171.110,59.870 L171.110,54.495 L169.691,54.468 L169.725,53.465 L173.705,53.465 L173.705,54.468 L172.320,54.495 L172.320,59.870 ZM160.308,41.168 C156.602,41.168 153.535,40.033 151.102,37.765 C148.665,35.500 147.446,32.649 147.446,29.200 L147.446,9.643 L153.320,9.643 L153.320,28.326 C153.320,30.629 153.856,32.469 154.930,33.830 C156.123,35.330 157.917,36.078 160.308,36.078 C165.026,36.078 167.388,33.400 167.388,28.033 L167.388,9.643 L173.258,9.643 L173.258,28.990 C173.258,32.523 172.049,35.435 169.630,37.729 C167.210,40.020 164.099,41.168 160.308,41.168 ZM141.390,58.692 L141.360,59.869 L138.079,59.869 L138.079,53.473 L141.360,53.464 L141.390,54.606 L139.310,54.606 L139.310,55.922 L141.242,55.922 L141.242,57.031 L139.310,57.031 L139.310,58.692 L141.390,58.692 ZM131.446,57.308 C132.188,57.215 132.671,56.904 132.896,56.372 C133.043,56.049 133.058,55.739 132.934,55.438 C132.733,54.839 132.177,54.551 131.259,54.574 L131.259,57.308 L131.268,59.869 L130.048,59.869 L130.048,53.474 L131.453,53.474 C132.302,53.474 132.955,53.643 133.415,53.983 C133.963,54.424 134.246,55.045 134.272,55.854 C134.246,56.454 134.033,56.939 133.638,57.308 L133.190,57.721 L134.830,59.869 L133.362,59.869 L131.446,57.308 ZM134.658,34.786 L134.526,40.456 L116.230,40.456 L116.230,9.644 L134.526,9.603 L134.658,15.107 L122.145,15.107 L122.145,21.447 L133.942,21.447 L133.942,26.782 L122.145,26.782 L122.145,34.786 L134.658,34.786 ZM123.318,6.711 L125.861,0.010 L132.015,0.010 L127.360,6.711 L123.318,6.711 ZM118.401,53.345 C119.410,53.345 120.284,53.660 121.023,54.287 C121.774,54.939 122.148,55.732 122.148,56.666 C122.148,57.601 121.777,58.394 121.034,59.044 C120.288,59.692 119.410,60.014 118.401,60.014 C117.384,60.014 116.506,59.695 115.769,59.050 C115.031,58.408 114.665,57.614 114.665,56.666 C114.665,55.732 115.037,54.939 115.788,54.287 C116.520,53.660 117.393,53.345 118.401,53.345 ZM115.872,56.666 C115.872,57.308 116.122,57.851 116.620,58.295 C117.122,58.737 117.711,58.960 118.401,58.960 C119.088,58.960 119.684,58.736 120.181,58.289 C120.684,57.841 120.931,57.302 120.931,56.666 C120.931,56.021 120.684,55.475 120.193,55.031 C119.701,54.587 119.103,54.365 118.401,54.365 C117.703,54.365 117.104,54.586 116.612,55.029 C116.119,55.469 115.872,56.015 115.872,56.666 ZM110.809,59.870 L109.597,59.870 L109.597,54.495 L108.176,54.468 L108.211,53.465 L112.192,53.465 L112.192,54.468 L110.809,54.495 L110.809,59.870 ZM102.819,60.015 C102.169,60.015 101.623,59.840 101.182,59.488 C100.884,59.234 100.613,58.993 100.365,58.761 L101.148,58.035 C101.618,58.566 102.191,58.872 102.865,58.960 C103.181,58.960 103.440,58.861 103.638,58.662 C103.835,58.464 103.935,58.216 103.935,57.922 C103.935,57.570 103.667,57.277 103.125,57.038 C102.624,56.822 102.122,56.604 101.621,56.390 C101.079,56.061 100.810,55.605 100.810,55.023 C100.810,54.509 101.046,54.093 101.518,53.769 C101.946,53.479 102.441,53.336 103.003,53.336 C103.848,53.336 104.481,53.562 104.902,54.019 L104.194,54.780 C103.807,54.504 103.396,54.364 102.968,54.364 C102.740,54.364 102.533,54.423 102.346,54.539 C102.134,54.666 102.028,54.832 102.028,55.039 C102.028,55.294 102.193,55.501 102.523,55.663 C102.559,55.680 102.832,55.777 103.349,55.947 C103.680,56.057 103.987,56.208 104.269,56.399 C104.617,56.630 104.846,56.867 104.959,57.107 C105.003,57.194 105.048,57.339 105.097,57.541 C105.136,57.687 105.154,57.823 105.154,57.955 C105.154,58.515 104.916,59.000 104.444,59.406 C103.968,59.813 103.428,60.015 102.819,60.015 ZM93.503,41.168 C90.364,41.168 87.737,40.320 85.616,38.625 C84.180,37.401 82.868,36.233 81.672,35.119 L85.434,31.620 C87.711,34.177 90.470,35.661 93.726,36.079 C95.249,36.079 96.490,35.602 97.446,34.643 C98.399,33.683 98.881,32.497 98.881,31.077 C98.881,29.382 97.575,27.965 94.977,26.822 C92.561,25.767 90.142,24.726 87.722,23.698 C85.121,22.112 83.823,19.920 83.823,17.109 C83.823,14.633 84.956,12.622 87.231,11.064 C89.288,9.674 91.679,8.979 94.396,8.979 C98.458,8.979 101.506,10.076 103.541,12.274 L100.129,15.943 C98.251,14.605 96.281,13.938 94.220,13.938 C93.110,13.938 92.112,14.219 91.215,14.772 C90.198,15.385 89.694,16.189 89.694,17.193 C89.694,18.414 90.481,19.417 92.068,20.194 C92.245,20.281 93.575,20.737 96.058,21.573 C97.641,22.098 99.118,22.821 100.490,23.738 C102.163,24.848 103.268,25.991 103.809,27.158 C104.012,27.573 104.242,28.269 104.475,29.242 C104.661,29.938 104.749,30.606 104.749,31.242 C104.749,33.941 103.609,36.266 101.320,38.224 C99.032,40.187 96.429,41.168 93.503,41.168 ZM75.654,59.868 L73.969,59.868 L73.969,53.474 L75.570,53.474 C76.686,53.474 77.612,53.728 78.349,54.235 C79.169,54.801 79.578,55.586 79.578,56.589 C79.578,57.633 79.198,58.454 78.444,59.048 C77.729,59.595 76.802,59.868 75.654,59.868 ZM75.189,54.495 L75.189,58.846 L75.525,58.846 C76.342,58.846 77.001,58.677 77.505,58.337 C78.069,57.955 78.349,57.396 78.349,56.657 C78.349,55.215 77.297,54.495 75.189,54.495 ZM59.016,41.168 C55.315,41.168 52.246,40.033 49.810,37.765 C47.375,35.500 46.161,32.649 46.161,29.200 L46.161,9.643 L52.030,9.643 L52.030,28.326 C52.030,30.629 52.570,32.469 53.643,33.830 C54.837,35.330 56.624,36.078 59.016,36.078 C63.738,36.078 66.098,33.400 66.098,28.033 L66.098,9.643 L71.968,9.643 L71.968,28.990 C71.968,32.523 70.759,35.435 68.339,37.729 C65.917,40.020 62.810,41.168 59.016,41.168 ZM46.888,53.396 L46.888,59.972 L42.909,56.267 L42.909,59.938 L41.570,59.938 L41.570,53.258 L45.512,56.926 L45.512,53.396 L46.888,53.396 ZM34.434,60.014 C33.414,60.014 32.538,59.695 31.801,59.050 C31.064,58.408 30.693,57.614 30.693,56.666 C30.693,55.732 31.069,54.939 31.818,54.287 C32.550,53.660 33.422,53.345 34.434,53.345 C35.442,53.345 36.318,53.660 37.054,54.287 C37.804,54.939 38.181,55.732 38.181,56.666 C38.181,57.601 37.807,58.394 37.065,59.044 C36.320,59.692 35.442,60.014 34.434,60.014 ZM36.223,55.031 C35.729,54.587 35.133,54.365 34.434,54.365 C33.733,54.365 33.134,54.586 32.642,55.029 C32.150,55.469 31.904,56.015 31.904,56.666 C31.904,57.308 32.152,57.851 32.649,58.295 C33.150,58.737 33.744,58.960 34.434,58.960 C35.121,58.960 35.714,58.736 36.212,58.289 C36.712,57.841 36.964,57.302 36.964,56.666 C36.964,56.021 36.716,55.475 36.223,55.031 ZM26.703,23.947 L16.484,33.954 L6.273,23.947 L6.273,40.622 L-0.001,40.622 L-0.001,8.435 L16.310,25.613 L32.754,8.604 L32.754,40.622 L26.839,40.622 L26.703,23.947 ZM3.942,53.396 L5.319,53.396 L5.319,59.972 L1.337,56.267 L1.337,59.938 L-0.001,59.938 L-0.001,53.258 L3.942,56.926 L3.942,53.396 ZM15.696,59.869 L14.385,59.869 L13.930,59.038 L10.358,59.038 L9.949,59.869 L8.620,59.869 L12.152,53.196 L15.696,59.869 ZM13.408,58.035 L12.152,55.585 L10.805,58.035 L13.408,58.035 ZM21.932,53.465 L21.932,54.468 L20.547,54.495 L20.547,59.870 L19.337,59.870 L19.337,54.495 L17.917,54.468 L17.952,53.465 L21.932,53.465 ZM27.057,59.870 L25.840,59.870 L25.840,53.474 L27.057,53.474 L27.057,59.870 ZM57.267,59.869 L55.956,59.869 L55.501,59.038 L51.927,59.038 L51.520,59.869 L50.188,59.869 L53.723,53.196 L57.267,59.869 ZM54.979,58.035 L53.723,55.585 L52.375,58.035 L54.979,58.035 ZM61.831,58.847 L63.896,58.847 L63.896,59.869 L60.614,59.869 L60.614,53.473 L61.831,53.473 L61.831,58.847 ZM83.787,53.495 L82.556,55.246 L81.769,55.246 L82.442,53.495 L83.787,53.495 ZM87.902,55.914 L90.775,55.914 L90.775,53.473 L91.991,53.473 L91.991,59.869 L90.775,59.869 L90.775,56.951 L87.902,56.951 L87.902,59.869 L86.682,59.869 L86.682,53.473 L87.902,53.473 L87.902,55.914 ZM96.939,59.870 L95.721,59.870 L95.721,53.474 L96.939,53.474 L96.939,59.870 ZM126.273,59.870 L125.056,59.870 L125.056,53.474 L126.273,53.474 L126.273,59.870 ZM155.484,53.396 L156.861,53.396 L156.861,59.972 L152.880,56.267 L152.880,59.938 L151.541,59.938 L151.541,53.258 L155.484,56.926 L155.484,53.396 ZM167.239,59.869 L165.928,59.869 L165.473,59.038 L161.903,59.038 L161.494,59.869 L160.162,59.869 L163.700,53.196 L167.239,59.869 ZM164.951,58.035 L163.700,55.585 L162.348,58.035 L164.951,58.035 ZM189.848,53.983 C190.394,54.424 190.680,55.045 190.704,55.854 C190.680,56.454 190.467,56.939 190.074,57.308 L189.625,57.721 L191.261,59.869 L189.792,59.869 L187.876,57.308 C188.621,57.215 189.106,56.904 189.330,56.372 C189.478,56.049 189.489,55.739 189.365,55.438 C189.168,54.839 188.607,54.551 187.691,54.574 L187.691,57.308 L187.701,59.869 L186.482,59.869 L186.482,53.474 L187.888,53.474 C188.734,53.474 189.389,53.643 189.848,53.983 ZM197.928,54.606 L195.846,54.606 L195.846,55.922 L197.777,55.922 L197.777,57.031 L195.846,57.031 L195.846,58.692 L197.928,58.692 L197.898,59.869 L194.617,59.869 L194.617,53.473 L197.898,53.464 L197.928,54.606 ZM202.801,58.847 L204.865,58.847 L204.865,59.869 L201.584,59.869 L201.584,53.473 L202.801,53.473 L202.801,58.847 ZM209.886,58.847 L211.951,58.847 L211.951,59.869 L208.669,59.869 L208.669,53.473 L209.886,53.473 L209.886,58.847 Z" class="cls-1"/>
</svg>
